<?xml version="1.0" encoding="UTF-8"?>
<svg id="Layer_2" data-name="Layer 2" xmlns="http://www.w3.org/2000/svg" viewBox="0 0 335.66 335.66">
  <defs>
    <style>
      .cls-1 {
        fill: #6943ff;
        stroke-width: 0px;
      }
    </style>
  </defs>
  <g id="Layer_1-2" data-name="Layer 1">
    <g>
      <path class="cls-1" d="M260.32,321.75l61.43-61.43L75.34,13.9,13.91,75.34l246.41,246.41h0ZM333.97,264.39l-69.56,69.56-.02.02c-2.25,2.25-5.9,2.25-8.15,0h0S1.71,79.43,1.71,79.43l-.02-.02c-2.25-2.25-2.25-5.9,0-8.15h0S71.25,1.71,71.25,1.71l.02-.02c2.25-2.25,5.9-2.25,8.15,0h0s254.54,254.54,254.54,254.54l.02.02c2.25,2.25,2.25,5.9,0,8.15h0Z"/>
      <path class="cls-1" d="M227.96,297.54c-2.25,2.25-2.25,5.9,0,8.15s5.9,2.25,8.14,0l23.76-23.76c2.25-2.25,2.25-5.9,0-8.15s-5.9-2.25-8.15,0l-23.76,23.76Z"/>
      <path class="cls-1" d="M199.68,269.26c-2.25,2.25-2.25,5.9,0,8.14s5.9,2.25,8.15,0l34.62-34.62c2.25-2.25,2.25-5.9,0-8.15-2.25-2.25-5.9-2.25-8.15,0l-34.62,34.62Z"/>
      <path class="cls-1" d="M171.39,240.97c-2.25,2.25-2.25,5.9,0,8.15s5.9,2.25,8.15,0l23.76-23.76c2.25-2.25,2.25-5.9,0-8.14-2.25-2.25-5.9-2.25-8.14,0l-23.76,23.76Z"/>
      <path class="cls-1" d="M143.11,212.69c-2.25,2.25-2.25,5.9,0,8.15,2.25,2.25,5.9,2.25,8.15,0l34.62-34.62c2.25-2.25,2.25-5.9,0-8.15s-5.9-2.25-8.15,0l-34.62,34.62Z"/>
      <path class="cls-1" d="M114.82,184.4c-2.25,2.25-2.25,5.9,0,8.15,2.25,2.25,5.9,2.25,8.14,0l23.76-23.76c2.25-2.25,2.25-5.9,0-8.14s-5.9-2.25-8.15,0l-23.76,23.76Z"/>
      <path class="cls-1" d="M86.54,156.12c-2.25,2.25-2.25,5.9,0,8.14s5.9,2.25,8.14,0l34.62-34.62c2.25-2.25,2.25-5.9,0-8.15-2.25-2.25-5.9-2.25-8.14,0l-34.62,34.62Z"/>
      <path class="cls-1" d="M58.26,127.84c-2.25,2.25-2.25,5.9,0,8.14s5.9,2.25,8.14,0l23.76-23.76c2.25-2.25,2.25-5.9,0-8.14s-5.9-2.25-8.14,0l-23.76,23.76Z"/>
      <path class="cls-1" d="M29.97,99.55c-2.25,2.25-2.25,5.9,0,8.14s5.9,2.25,8.14,0l34.62-34.62c2.25-2.25,2.25-5.9,0-8.14-2.25-2.25-5.9-2.25-8.15,0l-34.62,34.62Z"/>
    </g>
  </g>
</svg>